<?xml version="1.0" encoding="UTF-8"?>
<svg id="Layer_2" data-name="Layer 2" xmlns="http://www.w3.org/2000/svg" viewBox="0 0 157.85 157.85">
  <defs>
    <style>
      .cls-1 {
        fill: #fff;
      }
    </style>
  </defs>
  <g id="objects">
    <g>
      <path class="cls-1" d="M112.92,157.85H44.93c-24.77,0-44.93-20.15-44.93-44.93V44.93C0,20.15,20.15,0,44.93,0h68c24.77,0,44.93,20.15,44.93,44.93v68c0,24.77-20.15,44.93-44.93,44.93ZM44.93,13.53c-17.31,0-31.4,14.08-31.4,31.4v68c0,17.31,14.08,31.4,31.4,31.4h68c17.31,0,31.4-14.08,31.4-31.4V44.93c0-17.31-14.08-31.4-31.4-31.4H44.93Z"/>
      <path class="cls-1" d="M78.92,119.34c-22.29,0-40.42-18.13-40.42-40.42s18.13-40.42,40.42-40.42,40.42,18.13,40.42,40.42-18.13,40.42-40.42,40.42ZM78.92,52.04c-14.83,0-26.89,12.06-26.89,26.89s12.06,26.89,26.89,26.89,26.89-12.06,26.89-26.89-12.06-26.89-26.89-26.89Z"/>
      <path class="cls-1" d="M130.79,36.2c0,5.37-4.35,9.71-9.71,9.71s-9.71-4.35-9.71-9.71,4.35-9.71,9.71-9.71,9.71,4.35,9.71,9.71Z"/>
    </g>
  </g>
</svg>